<?xml version="1.0" encoding="UTF-8"?>
<svg id="Layer_1" data-name="Layer 1" xmlns="http://www.w3.org/2000/svg" viewBox="0 0 26.1 23.74">
  <defs>
    <style>
      .cls-1 {
        fill: #b0bdb9;
      }

      .cls-1, .cls-2 {
        stroke-width: 0px;
      }

      .cls-2 {
        fill: #fff;
      }
    </style>
  </defs>
  <circle class="cls-2" cx="13.22" cy="11.59" r="8"/>
  <circle class="cls-1" cx="13.26" cy="6.73" r=".67"/>
  <g>
    <path class="cls-1" d="M8.14,13.48c-.53,0-.94-.21-1.23-.58-.29-.38-.46-.93-.46-1.6,0-1.15.44-2.35,1.81-2.35.39,0,.81.13.98.32l-.43.77c-.17-.15-.37-.22-.58-.22-.48,0-.68.39-.68,1.19,0,.84.09,1.29.28,1.45.12.1.25.16.4.16.25,0,.47-.06.68-.28l.42.7c-.24.26-.63.45-1.19.45Z"/>
    <path class="cls-1" d="M15.51,16.09l-.29-4.97c-.02-.32-.05-1.16-.05-1.49-.08.43-.2,1.1-.26,1.4l-1.22,6.06h-.91l-1.11-5.83c-.14-.62-.25-1.18-.3-1.61-.01.58-.02,1.08-.05,1.61l-.29,4.83h-1.03l.57-7.45h1.43l1.04,5.59c.09.41.16.97.24,1.48.04-.37.13-.97.24-1.44l1.06-5.63h1.43l.55,7.45h-1.03Z"/>
    <path class="cls-1" d="M19.81,13.61h-2.28v-4.76h1.07v3.82h1.42l-.21.94Z"/>
  </g>
</svg>